<svg width="20" height="20" viewBox="0 0 20 20" fill="none" xmlns="http://www.w3.org/2000/svg">
  <g id="Close">
    <rect width="20" height="20" fill="white" style="mix-blend-mode:multiply"/>
    <path id="Vector" d="M14.2929 5.29289C14.6834 4.90237 15.3166 4.90237 15.7071 5.29289C16.0976 5.68342 16.0976 6.31658 15.7071 6.70711L11.4142 11L15.7071 15.2929C16.0976 15.6834 16.0976 16.3166 15.7071 16.7071C15.3166 17.0976 14.6834 17.0976 14.2929 16.7071L10 12.4142L5.70711 16.7071C5.31658 17.0976 4.68342 17.0976 4.29289 16.7071C3.90237 16.3166 3.90237 15.6834 4.29289 15.2929L8.58579 11L4.29289 6.70711C3.90237 6.31658 3.90237 5.68342 4.29289 5.29289C4.68342 4.90237 5.31658 4.90237 5.70711 5.29289L10 9.58579L14.2929 5.29289Z" fill="#2A254B"/>
  </g>
</svg>
